   ____       ______   ___________     ______   _________
  /    \     /      \ /\          \   /      \ /\        \
 /\     \   /\    __/_\ \   \  \   \ /\       \\ \    \   \
 \ \     \__\ \    __/_\ \   \  \   \\ \   \   \\ \    \   \
  \ \       \\ \       \\ \   \  \   \\ \       \\ \    \   \
   \ \_______\\ \_______\\ \___\__\__/ \ \_______\\ \____\__/
    \/_______/ \/_______/ \/___/__/_/   \/_______/ \/____/_/
              ________     ___   ________   ________
             /\       \   /   \ /\       \ /\       \
             \ \    ___\ /\    \\ \   \   \\ \       \
              \ \    ___\\ \    \\ \     _/_\ \   \   \
               \ \       \\ \    \\ \   \   \\ \       \
                \ \______/ \ \____\\ \___\__/ \ \______/
                 \/_____/   \/____/ \/___/_/   \/_____/

            H A N G M A N   A N D   T H E   J U R Y

  ¦¯ ¯¯¯¯¯¯¯¯¯¯¯ ¯¯¯¯¯¯   ¯¯¯¯¯¯¯¯ ¯¯¯¯   ¯¯¯¯¯ ¯¯¯ ¯  ¯ ¯¯¦
  ¦ [ release info ]                                       ¦
  ¦                                                        ¦
  ¦   artist: Lemon Bird                                   ¦
       album: Hangman and the Jury                                     
  ¦    label: Yellow Note                                  ¦
                                                            
       genre: Classic Rock
    rip date: 2010-09-17
    rel date: 2010-09-17
    # tracks: 11
        size: 87MB
        time: 61:13
      ripper: StickyRick


  ¦¯¯¯¯¯¯¯¯¯¯¯¯¯¯¯¯¯¯¯¯¯¯¯¯¯¯¯¯¯¯¯¯¯¯¯¯ ¯¯¯¯¯¯ ¯¯¯¯ ¯  ¯ ¯¯¦
  ¦ [ about this release ]                                 ¦
  ¦                                                        ¦
    After the soaring first flight on the wings of Rara 
    Avis comes a new flight. This is Hangman and the Jury; 
    eleven new eggs in the Lemon Bird nest. Perfectly 
    shaped and fully developed, they're ready to explode 
    into your ears and beautify your mind with the sound 
    that can only be Lemon Bird. The little Lemon Bird has 
    indeed flown and now we find them bringing it all home 
    after finding new adventures in the wild landscapes of 
    rock and blues. Come listen to what the little Lemon 
    Bird has discovered. We think you're gonna like it. 
    We think you're really gonna to like it. 

    Remember, the little Lemon Bird never disappoints; 
    it only satisfies.

    The legend grows with every live show!

	
  ¦¯¯¯¯¯¯¯¯¯¯¯¯¯¯¯¯¯¯¯¯¯¯¯¯¯¯¯¯¯¯¯¯¯¯¯¯ ¯¯¯¯¯¯ ¯¯¯¯ ¯  ¯ ¯¯¦
  ¦ [ track listing ]                                      ¦
  ¦ trk  title                                        time ¦

    01   Look Out for Love                            4:08
    02   Black Heart Woman                            4:26
    03   Get You                                      6:15
    04   Market Street                                5:52
    05   Down the Hatch                               4:48
    06   Melodrama                                    7:57
    07   Joyride                                      3:53
    08   Shooting Star                                3:56
    09   Good Times                                   5:05
    10   The Mole                                     5:02
    11   Hangman and the Jury                         9:51


  ¦¯¯¯¯¯¯¯¯¯¯¯¯¯¯¯¯¯¯¯¯¯¯¯¯¯¯¯¯¯¯¯¯¯¯¯ ¯¯¯¯¯¯ ¯¯¯¯ ¯  ¯ ¯¯¦
  ¦ [ reviews ]                                           ¦
  ¦                                                       ¦
  ¦ Whatever happens, you can be sure that people will    ¦
    always take inspiration from the classics. Some may   
  ¦ try and emulate the output; some may be impressed by  ¦
    attitude, arrangements, and composition. Seldom do
    the bands sound exactly like the ones that inspired
    them, however there are some exceptions.

    Lemon Bird is one of few bands I can think of that
    have successfully captured the spirit and sound of
    the ol' Zep. And yes, while the Zep-a-thon does swing
    throughout, there's still generic heavy rock in here
    and the odd Asia influence creeping in there.


                            ''~``
                           ( o o )
+---------------------.oooO--(_)--Oooo.----------------------+
|                                        ___                 |
|  /\  __ __   __  __  __   ____        /   \ __   __   __   |
|  \ \/ // _\ / / / / /  \ / / /\      /  / //  \ / /_ / _\  |
|   \  // __// / / / / / // / / /     /  / // / // __// __/  |
|   / // /_ / /_/ /_/ / // / / /     /  / // / // /_ / /_    |
|   \/ \__/ \__/\__/\__/ \____/      \_/_/ \__/ \__/ \__/    |
|                                                            |
|                       .oooO                                |  
|                       (   )   Oooo.                        | 
+------------------------\ (----(   )------------------------+
                          \_)    ) /
                                (_/

 DR  	   Peak       RMS      	 Filename
 DR16	  -0.30 dB	 -18.37 dB	 Black Heart Woman.wav
 DR17	  -0.30 dB	 -18.44 dB	 Down the Hatch.wav
 DR15	  -0.30 dB	 -17.77 dB	 Get You.wav
 DR13	  -2.61 dB	 -19.96 dB	 Good Times.wav
 DR16	  -0.30 dB	 -18.80 dB	 Hangman and the Jury.wav
 DR15	  -0.35 dB	 -18.85 dB	 Joyride.wav
 DR16	  -0.30 dB	 -18.50 dB	 Look Out for Love.wav
 DR17	  -2.74 dB	 -22.72 dB	 Market Street.wav
 DR14	  -0.30 dB	 -17.92 dB	 Melodrama.wav
 DR15	  -0.30 dB	 -17.43 dB	 Shooting Star.wav
 DR15	  -0.30 dB	 -18.43 dB	 The Mole.wav

Official DR value:  DR15 
